<svg xmlns="http://www.w3.org/2000/svg" viewBox="0 0 32 40" x="0px" y="0px"><g><path d="M28,1H4A3.00328,3.00328,0,0,0,1,4V28a3.00328,3.00328,0,0,0,3,3H20.17188a2.97948,2.97948,0,0,0,2.12109-.87891L30.12109,22.293A2.9818,2.9818,0,0,0,31,20.17139V4A3.00328,3.00328,0,0,0,28,1ZM3,28V4A1.001,1.001,0,0,1,4,3H28a1.001,1.001,0,0,1,1,1V19H22a3.00328,3.00328,0,0,0-3,3v7H4A1.001,1.001,0,0,1,3,28Zm18,.58594V22a1.001,1.001,0,0,1,1-1h6.58594ZM6,7.5A1.5,1.5,0,1,1,7.5,9,1.5,1.5,0,0,1,6,7.5ZM9,16a1.5,1.5,0,1,1-1.5-1.5A1.5,1.5,0,0,1,9,16Zm0,8.5A1.5,1.5,0,1,1,7.5,23,1.5,1.5,0,0,1,9,24.5Z"/></g><text x="0" y="47" fill="#000000" font-size="5px" font-weight="bold" font-family="'Helvetica Neue', Helvetica, Arial-Unicode, Arial, Sans-serif">Created by Ricons</text><text x="0" y="52" fill="#000000" font-size="5px" font-weight="bold" font-family="'Helvetica Neue', Helvetica, Arial-Unicode, Arial, Sans-serif">from the Noun Project</text></svg>